<svg width="140" height="140" viewBox="0 0 140 140" fill="none" xmlns="http://www.w3.org/2000/svg">
<circle cx="70" cy="70" r="70" fill="#BB8D3F"/>
<path d="M103.871 66.8709H99.3548V55.5806H100.484C100.707 55.5806 100.925 55.5143 101.111 55.3903C101.297 55.2662 101.441 55.0899 101.527 54.8836C101.612 54.6773 101.635 54.4504 101.591 54.2314C101.547 54.0124 101.44 53.8113 101.282 53.6534L80.9595 33.3308C80.7478 33.1191 80.4607 33.0001 80.1613 33H59.8387C59.5393 33.0001 59.2522 33.1191 59.0405 33.3308L38.7179 53.6534C38.5601 53.8113 38.4526 54.0124 38.409 54.2314C38.3655 54.4504 38.3878 54.6773 38.4733 54.8836C38.5587 55.0899 38.7034 55.2662 38.889 55.3903C39.0746 55.5143 39.2929 55.5806 39.5161 55.5806H45.1613V65.7419H36.129C35.8296 65.7419 35.5424 65.8609 35.3307 66.0726C35.119 66.2843 35 66.5715 35 66.8709V87.1935C35 87.4929 35.119 87.7801 35.3307 87.9918C35.5424 88.2036 35.8296 88.3225 36.129 88.3225H45.1613C45.4607 88.3225 45.7479 88.2036 45.9596 87.9918C46.1714 87.7801 46.2903 87.4929 46.2903 87.1935V86.0645H51.564L52.3544 86.6425L49.9032 89.9032C49.8129 90.0236 49.7476 90.1608 49.7111 90.3068C49.6746 90.4529 49.6676 90.6047 49.6907 90.7535C49.7137 90.9022 49.7663 91.0448 49.8452 91.173C49.9242 91.3011 50.028 91.4122 50.1505 91.4996L65.9569 102.79C66.1969 102.961 66.4944 103.032 66.7857 102.987C67.0771 102.942 67.3392 102.784 67.5161 102.548L69.8013 99.4999L72.7176 101.645C72.9566 101.822 73.2559 101.898 73.5504 101.856C73.8449 101.813 74.1108 101.657 74.2903 101.419L76.869 97.9814L77.2077 98.2467C77.3262 98.3391 77.4619 98.4069 77.6069 98.4462C77.7519 98.4854 77.9033 98.4954 78.0522 98.4754C78.2011 98.4554 78.3445 98.4059 78.474 98.3298C78.6035 98.2537 78.7165 98.1525 78.8064 98.0322L81.3852 94.5943L81.7239 94.8596C81.8423 94.952 81.978 95.0198 82.123 95.0591C82.268 95.0983 82.4194 95.1083 82.5683 95.0883C82.7172 95.0683 82.8606 95.0188 82.9901 94.9427C83.1196 94.8666 83.2327 94.7654 83.3226 94.6451L85.9013 91.2072L86.24 91.4725C86.3585 91.5649 86.4942 91.6327 86.6392 91.672C86.7842 91.7112 86.9355 91.7212 87.0844 91.7012C87.2333 91.6812 87.3767 91.6317 87.5062 91.5556C87.6358 91.4795 87.7488 91.3783 87.8387 91.258L90.8871 87.1935H93.7097V88.3225C93.7097 88.622 93.8286 88.9091 94.0404 89.1209C94.2521 89.3326 94.5393 89.4516 94.8387 89.4516H103.871C104.17 89.4516 104.458 89.3326 104.669 89.1209C104.881 88.9091 105 88.622 105 88.3225V68C105 67.7005 104.881 67.4133 104.669 67.2016C104.458 66.9899 104.17 66.8709 103.871 66.8709ZM44.0323 86.0645H37.2581V68H44.0323V86.0645ZM97.7584 53.3226H80.6287L62.5642 35.2581H79.6939L97.7584 53.3226ZM59.8387 35.7255L77.4358 53.3226H73.8545L60.6369 40.105C60.4252 39.8933 60.1381 39.7744 59.8387 39.7744C59.5393 39.7744 59.2522 39.8933 59.0405 40.105L45.8229 53.3226H42.2416L59.8387 35.7255ZM59.8387 66.8709V68H56.4516V62.3548C56.4516 61.4565 56.8085 60.595 57.4437 59.9598C58.0789 59.3246 58.9404 58.9677 59.8387 58.9677C60.737 58.9677 61.5985 59.3246 62.2337 59.9598C62.869 60.595 63.2258 61.4565 63.2258 62.3548V65.7419H60.9677C60.6683 65.7419 60.3811 65.8609 60.1694 66.0726C59.9577 66.2843 59.8387 66.5715 59.8387 66.8709ZM59.8387 56.7097C58.3421 56.7114 56.9072 57.3068 55.849 58.3651C54.7907 59.4233 54.1953 60.8582 54.1935 62.3548V68H47.4194V54.919L59.8387 42.4997L72.2581 54.919V65.7419H65.4839V62.3548C65.4821 60.8582 64.8867 59.4233 63.8285 58.3651C62.7702 57.3068 61.3354 56.7114 59.8387 56.7097ZM54.1665 87.9838L56.166 89.4516L54.4194 91.7774L52.3973 90.3333L54.1665 87.9838ZM63.989 95.2175L62.3282 97.4225L60.3061 95.9785L61.9839 93.7419L63.989 95.2175ZM58.4737 94.6677L56.2687 93.087L57.9894 90.7917L60.1718 92.3995L58.4737 94.6677ZM66.3769 100.313L64.1719 98.7322L65.8068 96.552L67.9892 98.1586L66.3769 100.313ZM86.7221 88.9841L77.464 81.7854L76.0776 83.5693L84.1152 89.8207L82.2026 92.3712L72.9445 85.1725L71.5581 86.9564L79.5956 93.2078L77.6831 95.7583L68.425 88.5596L67.0385 90.3435L75.0761 96.5949L73.1455 99.1691L52.605 84.0322C52.4117 83.8872 52.1771 83.8081 51.9355 83.8064H46.2903V70.258H59.8387V71.3871C59.8387 71.6865 59.9577 71.9737 60.1694 72.1854C60.3811 72.3971 60.6683 72.5161 60.9677 72.5161H70.7463L88.7476 86.2812L86.7221 88.9841ZM90.7053 84.9354L71.8144 70.4906C71.6179 70.3395 71.3769 70.2577 71.129 70.258H62.0968V68H73.2042L83.1916 71.3295C83.3067 71.3677 83.4271 71.3871 83.5484 71.3871H93.7097V84.9354H90.7053ZM93.7097 68V69.129H83.7313L79.0323 67.563V60.0967H92.5806V64.6129H94.8387V58.9677C94.8387 58.6683 94.7198 58.3811 94.508 58.1694C94.2963 57.9576 94.0091 57.8387 93.7097 57.8387H77.9032C77.6038 57.8387 77.3166 57.9576 77.1049 58.1694C76.8931 58.3811 76.7742 58.6683 76.7742 58.9677V66.81L74.5161 66.0569V55.5806H97.0968V66.8709H94.8387C94.5393 66.8709 94.2521 66.9899 94.0404 67.2016C93.8286 67.4133 93.7097 67.7005 93.7097 68ZM102.742 87.1935H95.9677V69.129H102.742V87.1935Z" fill="#28282B"/>
<path d="M59.8384 46.5483C58.9452 46.5483 58.072 46.8132 57.3294 47.3094C56.5867 47.8057 56.0079 48.511 55.666 49.3362C55.3242 50.1614 55.2348 51.0695 55.409 51.9455C55.5833 52.8216 56.0134 53.6263 56.645 54.2578C57.2766 54.8894 58.0813 55.3196 58.9573 55.4938C59.8334 55.6681 60.7414 55.5786 61.5666 55.2368C62.3919 54.895 63.0972 54.3162 63.5934 53.5735C64.0897 52.8308 64.3545 51.9577 64.3545 51.0645C64.3545 49.8667 63.8787 48.718 63.0318 47.8711C62.1848 47.0241 61.0361 46.5483 59.8384 46.5483ZM59.8384 53.3225C59.3918 53.3225 58.9552 53.1901 58.5839 52.942C58.2125 52.6939 57.9231 52.3412 57.7522 51.9286C57.5813 51.516 57.5366 51.062 57.6237 50.6239C57.7108 50.1859 57.9259 49.7836 58.2417 49.4678C58.5575 49.152 58.9598 48.9369 59.3979 48.8498C59.8359 48.7627 60.2899 48.8074 60.7025 48.9783C61.1151 49.1492 61.4678 49.4386 61.7159 49.81C61.964 50.1813 62.0965 50.6179 62.0965 51.0645C62.0965 51.6633 61.8586 52.2377 61.4351 52.6612C61.0116 53.0846 60.4373 53.3225 59.8384 53.3225Z" fill="#28282B"/>
</svg>
