<svg width="140" height="140" viewBox="0 0 140 140" fill="none" xmlns="http://www.w3.org/2000/svg">
<circle cx="70" cy="70" r="70" fill="#BB8D3F"/>
<path d="M90.6705 66.5883C85.1664 61.0829 76.5403 60.2328 70.0677 64.5578C63.595 68.8827 61.0783 77.1782 64.0568 84.371C67.0354 91.5638 74.6795 95.6508 82.3144 94.1324C89.9492 92.6141 95.4486 85.9133 95.449 78.128C95.4616 73.7975 93.7409 69.642 90.6705 66.5883ZM89.0214 88.0186C84.3031 92.7371 76.9092 93.4652 71.3615 89.7575C65.8138 86.0498 63.6574 78.9392 66.211 72.7742C68.7647 66.6092 75.3172 63.1066 81.8613 64.4087C88.4054 65.7109 93.1184 71.455 93.1181 78.1282C93.1283 81.8398 91.6532 85.4014 89.0214 88.0186Z" fill="#28282B"/>
<path fill-rule="evenodd" clip-rule="evenodd" d="M79.132 66.4721C76.0392 66.4631 73.0716 67.6931 70.892 69.8875C70.589 70.1802 70.4675 70.6135 70.5742 71.021C70.6808 71.4286 70.999 71.7468 71.4065 71.8535C71.814 71.9602 72.2474 71.8387 72.54 71.5356C74.2838 69.7802 76.6577 68.7961 79.132 68.8033C79.7757 68.8033 80.2975 68.2815 80.2975 67.6377C80.2975 66.9939 79.7757 66.4721 79.132 66.4721Z" fill="#28282B"/>
<path d="M100.731 93.137C100.141 92.5515 99.284 92.3254 98.4825 92.5437L96.2192 90.2731C102.163 81.9375 101.21 70.5262 93.9663 63.292C93.5002 62.8258 93.0036 62.3805 92.4978 61.9608C92.8102 61.7223 93.0916 61.4459 93.3358 61.1379C94.884 59.0842 94.4889 56.1664 92.45 54.5987L67.9743 35.9486C66.3014 34.6838 63.9922 34.6838 62.3193 35.9486L54.6562 41.7872V39.6623C54.6562 38.3748 53.6126 37.3311 52.3253 37.3311H45.3322C44.0449 37.3311 43.0013 38.3748 43.0013 39.6623V50.6694L37.8404 54.6011C36.2464 55.8133 35.6046 57.9082 36.2457 59.8054C36.8869 61.7026 38.6678 62.9785 40.6703 62.9751V92.116C40.6703 93.4034 41.7139 94.4472 43.0013 94.4472H65.9522C73.26 100.364 83.6169 100.68 91.2714 95.2188L93.5406 97.4953C93.3289 98.2935 93.5565 99.1441 94.1385 99.7299L97.9846 103.576C99.1551 104.788 100.888 105.275 102.518 104.848C104.148 104.421 105.421 103.148 105.848 101.518C106.275 99.8879 105.789 98.1543 104.577 96.9837L100.731 93.137ZM45.3322 39.6623H52.3253V43.5637L45.3322 48.893V39.6623ZM38.8136 59.731C38.0378 58.7024 38.2348 57.2408 39.2554 56.4544L63.7308 37.8043C64.5654 37.1613 65.7283 37.1613 66.5631 37.8043L91.0385 56.4544C92.0558 57.2385 92.255 58.6941 91.4861 59.7229C91.2248 60.0657 90.8727 60.3285 90.4697 60.4816C88.9437 59.4964 87.2947 58.7162 85.5653 58.1609L65.8521 43.1299C65.4349 42.8121 64.8567 42.8121 64.4395 43.1299L42.0887 60.1693C41.061 60.944 39.6016 60.7487 38.8136 59.731ZM43.0013 62.3398C43.1736 62.2455 43.3399 62.1403 43.4989 62.0251L65.1457 45.5219L80.4767 57.2121C80.0292 57.1842 79.5839 57.1468 79.1318 57.1468C73.5648 57.1316 68.223 59.3443 64.2974 63.292C63.3249 64.2649 62.4489 65.3299 61.682 66.4718H56.9872C55.0562 66.4718 53.4907 68.0374 53.4907 69.9687V92.1159H43.0013V62.3398ZM55.8217 69.9688C55.8217 69.325 56.3435 68.8032 56.9872 68.8032H60.3497C56.5155 76.4885 57.7766 85.7378 63.528 92.116H55.8217V69.9688ZM65.9464 91.3151C59.656 85.0232 58.6856 75.1634 63.6288 67.7657C68.572 60.368 78.0519 57.4927 86.2709 60.8983C94.4899 64.3038 99.159 73.0417 97.4227 81.7682C95.6863 90.4946 88.0282 96.7792 79.1317 96.7784C74.1834 96.7921 69.4353 94.8248 65.9464 91.3151ZM93.9661 92.9645C94.2423 92.6871 94.4894 92.3899 94.7492 92.0996L96.6071 93.9647L94.9568 95.613L93.099 93.7479C93.3892 93.4902 93.6875 93.2419 93.9661 92.9645ZM102.924 101.924C102.002 102.805 100.55 102.805 99.6281 101.924L95.7819 98.077L99.078 94.7806L102.924 98.6272C103.834 99.5376 103.834 101.013 102.924 101.924Z" fill="#28282B"/>
</svg>
