<svg width="127" height="88" viewBox="0 0 127 88" fill="none" xmlns="http://www.w3.org/2000/svg">
<circle cx="3" cy="3" r="3" transform="matrix(-4.37114e-08 1 1 4.37114e-08 0 0)" fill="#28282B"/>
<circle cx="3" cy="3" r="3" transform="matrix(-4.37114e-08 1 1 4.37114e-08 0 54.5834)" fill="#28282B"/>
<circle cx="3" cy="3" r="3" transform="matrix(-4.37114e-08 1 1 4.37114e-08 0 27.2916)" fill="#28282B"/>
<circle cx="3" cy="3" r="3" transform="matrix(-4.37114e-08 1 1 4.37114e-08 0 81.875)" fill="#28282B"/>
<circle cx="3" cy="3" r="3" transform="matrix(-4.37114e-08 1 1 4.37114e-08 24.1729 0)" fill="#28282B"/>
<circle cx="3" cy="3" r="3" transform="matrix(-4.37114e-08 1 1 4.37114e-08 24.1729 54.5834)" fill="#28282B"/>
<circle cx="3" cy="3" r="3" transform="matrix(-4.37114e-08 1 1 4.37114e-08 24.1729 27.2916)" fill="#28282B"/>
<circle cx="3" cy="3" r="3" transform="matrix(-4.37114e-08 1 1 4.37114e-08 24.1729 81.875)" fill="#28282B"/>
<circle cx="3" cy="3" r="3" transform="matrix(-4.37114e-08 1 1 4.37114e-08 48.3447 0)" fill="#28282B"/>
<circle cx="3" cy="3" r="3" transform="matrix(-4.37114e-08 1 1 4.37114e-08 48.3447 54.5834)" fill="#28282B"/>
<circle cx="3" cy="3" r="3" transform="matrix(-4.37114e-08 1 1 4.37114e-08 48.3447 27.2916)" fill="#28282B"/>
<circle cx="3" cy="3" r="3" transform="matrix(-4.37114e-08 1 1 4.37114e-08 48.3447 81.875)" fill="#28282B"/>
<circle cx="3" cy="3" r="3" transform="matrix(-4.37114e-08 1 1 4.37114e-08 72.5186 0)" fill="#28282B"/>
<circle cx="3" cy="3" r="3" transform="matrix(-4.37114e-08 1 1 4.37114e-08 72.5186 54.5834)" fill="#28282B"/>
<circle cx="3" cy="3" r="3" transform="matrix(-4.37114e-08 1 1 4.37114e-08 72.5186 27.2916)" fill="#28282B"/>
<circle cx="3" cy="3" r="3" transform="matrix(-4.37114e-08 1 1 4.37114e-08 72.5186 81.875)" fill="#28282B"/>
<circle cx="3" cy="3" r="3" transform="matrix(-4.37114e-08 1 1 4.37114e-08 96.6904 0)" fill="#28282B"/>
<circle cx="3" cy="3" r="3" transform="matrix(-4.37114e-08 1 1 4.37114e-08 96.6904 54.5834)" fill="#28282B"/>
<circle cx="3" cy="3" r="3" transform="matrix(-4.37114e-08 1 1 4.37114e-08 96.6904 27.2916)" fill="#28282B"/>
<circle cx="3" cy="3" r="3" transform="matrix(-4.37114e-08 1 1 4.37114e-08 96.6904 81.875)" fill="#28282B"/>
<circle cx="3" cy="3" r="3" transform="matrix(-4.37114e-08 1 1 4.37114e-08 120.863 0)" fill="#28282B"/>
<circle cx="3" cy="3" r="3" transform="matrix(-4.37114e-08 1 1 4.37114e-08 120.863 54.5834)" fill="#28282B"/>
<circle cx="3" cy="3" r="3" transform="matrix(-4.37114e-08 1 1 4.37114e-08 120.863 27.2916)" fill="#28282B"/>
<circle cx="3" cy="3" r="3" transform="matrix(-4.37114e-08 1 1 4.37114e-08 120.863 81.875)" fill="#28282B"/>
</svg>
