<svg width="88" height="127" viewBox="0 0 88 127" fill="none" xmlns="http://www.w3.org/2000/svg">
<circle cx="3" cy="3" r="3" transform="matrix(1 0 0 -1 0 126.863)" fill="#28282B"/>
<circle cx="3" cy="3" r="3" transform="matrix(1 0 0 -1 54.583 126.863)" fill="#28282B"/>
<circle cx="3" cy="3" r="3" transform="matrix(1 0 0 -1 27.292 126.863)" fill="#28282B"/>
<circle cx="3" cy="3" r="3" transform="matrix(1 0 0 -1 81.875 126.863)" fill="#28282B"/>
<circle cx="3" cy="3" r="3" transform="matrix(1 0 0 -1 0 102.691)" fill="#28282B"/>
<circle cx="3" cy="3" r="3" transform="matrix(1 0 0 -1 54.583 102.691)" fill="#28282B"/>
<circle cx="3" cy="3" r="3" transform="matrix(1 0 0 -1 27.292 102.691)" fill="#28282B"/>
<circle cx="3" cy="3" r="3" transform="matrix(1 0 0 -1 81.875 102.691)" fill="#28282B"/>
<circle cx="3" cy="3" r="3" transform="matrix(1 0 0 -1 0 78.5186)" fill="#28282B"/>
<circle cx="3" cy="3" r="3" transform="matrix(1 0 0 -1 54.583 78.5186)" fill="#28282B"/>
<circle cx="3" cy="3" r="3" transform="matrix(1 0 0 -1 27.292 78.5186)" fill="#28282B"/>
<circle cx="3" cy="3" r="3" transform="matrix(1 0 0 -1 81.875 78.5186)" fill="#28282B"/>
<circle cx="3" cy="3" r="3" transform="matrix(1 0 0 -1 0 54.3451)" fill="#28282B"/>
<circle cx="3" cy="3" r="3" transform="matrix(1 0 0 -1 54.583 54.3451)" fill="#28282B"/>
<circle cx="3" cy="3" r="3" transform="matrix(1 0 0 -1 27.292 54.3451)" fill="#28282B"/>
<circle cx="3" cy="3" r="3" transform="matrix(1 0 0 -1 81.875 54.3451)" fill="#28282B"/>
<circle cx="3" cy="3" r="3" transform="matrix(1 0 0 -1 0 30.1729)" fill="#28282B"/>
<circle cx="3" cy="3" r="3" transform="matrix(1 0 0 -1 54.583 30.1729)" fill="#28282B"/>
<circle cx="3" cy="3" r="3" transform="matrix(1 0 0 -1 27.292 30.1729)" fill="#28282B"/>
<circle cx="3" cy="3" r="3" transform="matrix(1 0 0 -1 81.875 30.1729)" fill="#28282B"/>
<circle cx="3" cy="3" r="3" transform="matrix(1 0 0 -1 0 6.00024)" fill="#28282B"/>
<circle cx="3" cy="3" r="3" transform="matrix(1 0 0 -1 54.583 6.00049)" fill="#28282B"/>
<circle cx="3" cy="3" r="3" transform="matrix(1 0 0 -1 27.292 6.00049)" fill="#28282B"/>
<circle cx="3" cy="3" r="3" transform="matrix(1 0 0 -1 81.875 6.00049)" fill="#28282B"/>
</svg>
