<svg width="28" height="28" viewBox="0 0 28 28" fill="none" xmlns="http://www.w3.org/2000/svg">
<path d="M28 14C28 21.7195 21.7195 28 14 28C6.28053 28 2.74531e-07 21.7195 6.11959e-07 14C9.49388e-07 6.28053 6.28053 -9.49388e-07 14 -6.11959e-07C21.7195 -2.74531e-07 28 6.28053 28 14ZM1.75 14C1.75 20.7548 7.24522 26.25 14 26.25C20.7548 26.25 26.25 20.7548 26.25 14C26.25 7.24522 20.7548 1.75 14 1.75C7.24522 1.75 1.75 7.24522 1.75 14ZM14.6186 8.13137C14.2767 7.78947 13.7231 7.78947 13.3814 8.13137L9.00638 12.5064C8.83553 12.6772 8.75 12.9012 8.75 13.125C8.75 13.3488 8.83553 13.5728 9.00637 13.7436C9.34828 14.0855 9.90194 14.0855 10.2436 13.7436L13.125 10.8622L13.125 19.25C13.125 19.7332 13.5163 20.125 14 20.125C14.4837 20.125 14.875 19.7332 14.875 19.25L14.875 10.8622L17.7564 13.7436C18.0983 14.0855 18.6519 14.0855 18.9936 13.7436C19.3353 13.4017 19.3355 12.8481 18.9936 12.5064L14.6186 8.13137Z" fill="#BB8D3F"/>
</svg>
