<svg width="15" height="11" viewBox="0 0 15 11" fill="none" xmlns="http://www.w3.org/2000/svg">
<g opacity="0.5">
<path d="M9.94611 5.23892L15 8.43508V1.9043L9.94611 5.23892Z" fill="white"/>
<path d="M0 1.9043V8.43508L5.05386 5.23892L0 1.9043Z" fill="white"/>
<path d="M14.0655 0H0.934673C0.473134 0 0.0923633 0.346155 0.0231323 0.796156L7.50008 5.72309L14.977 0.796156C14.9078 0.346155 14.5155 0 14.0655 0Z" fill="white"/>
<path d="M9.08085 5.80383L7.75392 6.68076C7.67315 6.72691 7.59238 6.76153 7.50007 6.76153C7.40777 6.76153 7.31546 6.73845 7.24623 6.68076L5.9193 5.80383L0.034668 9.53077C0.103899 9.98077 0.484669 10.3154 0.946209 10.3269H14.077C14.5386 10.3269 14.9193 9.99231 14.9886 9.53077L9.08085 5.80383Z" fill="white"/>
</g>
</svg>
