<svg width="21" height="20" viewBox="0 0 21 20" fill="none" xmlns="http://www.w3.org/2000/svg">
<g opacity="0.5">
<path d="M12.8826 10C12.8826 11.0571 12.0223 11.9141 10.9611 11.9141C9.89981 11.9141 9.03955 11.0571 9.03955 10C9.03955 8.94287 9.89981 8.08594 10.9611 8.08594C12.0223 8.08594 12.8826 8.94287 12.8826 10Z" fill="white"/>
<path d="M15.4548 6.61295C15.3624 6.36362 15.215 6.13794 15.0236 5.9527C14.8376 5.76196 14.6112 5.61517 14.3607 5.52316C14.1576 5.44458 13.8525 5.35104 13.2905 5.32556C12.6825 5.29794 12.5002 5.29199 10.961 5.29199C9.42173 5.29199 9.23944 5.29779 8.63162 5.32541C8.0696 5.35104 7.76431 5.44458 7.56135 5.52316C7.3109 5.61517 7.08434 5.76196 6.89853 5.9527C6.70706 6.13794 6.5597 6.36346 6.46718 6.61295C6.38829 6.81528 6.29439 7.11938 6.26881 7.67923C6.24108 8.2847 6.23511 8.46628 6.23511 9.99963C6.23511 11.5328 6.24108 11.7144 6.26881 12.32C6.29439 12.8799 6.38829 13.1838 6.46718 13.3862C6.5597 13.6357 6.7069 13.8612 6.89838 14.0464C7.08434 14.2372 7.31074 14.3839 7.56119 14.476C7.76431 14.5547 8.0696 14.6482 8.63162 14.6737C9.23944 14.7013 9.42158 14.7071 10.9609 14.7071C12.5004 14.7071 12.6826 14.7013 13.2903 14.6737C13.8523 14.6482 14.1576 14.5547 14.3607 14.476C14.8635 14.2828 15.2608 13.887 15.4548 13.3862C15.5336 13.1838 15.6275 12.8799 15.6533 12.32C15.681 11.7144 15.6868 11.5328 15.6868 9.99963C15.6868 8.46628 15.681 8.2847 15.6533 7.67923C15.6277 7.11938 15.5338 6.81528 15.4548 6.61295ZM10.961 12.9481C9.32614 12.9481 8.00082 11.6281 8.00082 9.99948C8.00082 8.37091 9.32614 7.05087 10.961 7.05087C12.5958 7.05087 13.9211 8.37091 13.9211 9.99948C13.9211 11.6281 12.5958 12.9481 10.961 12.9481ZM14.0381 7.62338C13.6561 7.62338 13.3464 7.31485 13.3464 6.9343C13.3464 6.55374 13.6561 6.24521 14.0381 6.24521C14.4202 6.24521 14.7299 6.55374 14.7299 6.9343C14.7298 7.31485 14.4202 7.62338 14.0381 7.62338Z" fill="white"/>
<path d="M10.9612 0C5.41776 0 0.922363 4.478 0.922363 10C0.922363 15.522 5.41776 20 10.9612 20C16.5047 20 21.0001 15.522 21.0001 10C21.0001 4.478 16.5047 0 10.9612 0ZM16.691 12.3674C16.6631 12.9787 16.5655 13.396 16.423 13.7613C16.1236 14.5326 15.5115 15.1424 14.7371 15.4407C14.3706 15.5826 13.9515 15.6796 13.338 15.7076C12.7233 15.7355 12.5269 15.7422 10.9614 15.7422C9.39572 15.7422 9.19949 15.7355 8.58462 15.7076C7.97113 15.6796 7.55203 15.5826 7.18547 15.4407C6.80068 15.2965 6.45235 15.0705 6.16437 14.7783C5.87118 14.4916 5.64432 14.1444 5.49956 13.7613C5.3571 13.3961 5.25953 12.9787 5.23165 12.3676C5.20331 11.7551 5.19672 11.5594 5.19672 10C5.19672 8.44055 5.20331 8.24493 5.23149 7.6326C5.25937 7.02133 5.3568 6.604 5.49925 6.23871C5.64401 5.85556 5.87102 5.50842 6.16437 5.22171C6.45219 4.9295 6.80068 4.70352 7.18532 4.55933C7.55203 4.41742 7.97098 4.32037 8.58462 4.29245C9.19934 4.26453 9.39572 4.25781 10.9612 4.25781C12.5267 4.25781 12.7231 4.26453 13.3378 4.2926C13.9515 4.32037 14.3704 4.41742 14.7371 4.55917C15.1218 4.70337 15.4703 4.9295 15.7582 5.22171C16.0514 5.50858 16.2784 5.85556 16.423 6.23871C16.5657 6.604 16.6631 7.02133 16.6911 7.6326C16.7191 8.24493 16.7257 8.44055 16.7257 10C16.7257 11.5594 16.7191 11.7551 16.691 12.3674Z" fill="white"/>
</g>
</svg>
