<svg width="21" height="20" viewBox="0 0 21 20" fill="none" xmlns="http://www.w3.org/2000/svg">
<path opacity="0.5" d="M10.5 0C8.51455 0 6.57364 0.58649 4.92275 1.6853C3.27187 2.78412 1.98517 4.3459 1.22535 6.17316C0.465531 8.00042 0.266728 10.0111 0.65408 11.9509C1.04143 13.8907 1.99754 15.6725 3.4015 17.0711C4.80546 18.4696 6.59421 19.422 8.54156 19.8078C10.4889 20.1937 12.5074 19.9957 14.3417 19.2388C16.1761 18.4819 17.744 17.2002 18.847 15.5557C19.9501 13.9112 20.5389 11.9778 20.5389 10C20.5389 7.34783 19.4812 4.80429 17.5986 2.92893C15.7159 1.05357 13.1625 0 10.5 0ZM7.58085 15.2632H5.39079V8.23552H7.58085V15.2632ZM6.4845 7.27631C6.23245 7.27735 5.98576 7.20393 5.77559 7.06533C5.56543 6.92674 5.40123 6.72918 5.30375 6.49765C5.20627 6.26611 5.17989 6.01098 5.22794 5.76452C5.276 5.51805 5.39632 5.2913 5.57372 5.11294C5.75111 4.93458 5.9776 4.81261 6.22457 4.76245C6.47154 4.71229 6.72789 4.73619 6.96122 4.83113C7.19456 4.92606 7.3944 5.08778 7.53549 5.29583C7.67658 5.50388 7.75258 5.74893 7.75389 6C7.7546 6.33667 7.62146 6.65992 7.38359 6.89909C7.14572 7.13825 6.82247 7.27388 6.4845 7.27631ZM15.7837 15.2632H13.5949V11.8421C13.5949 11.0263 13.5791 9.98026 12.4563 9.98026C11.3335 9.98026 11.1354 10.8671 11.1354 11.7829V15.2632H8.95459V8.23552H11.0561V9.19342H11.0865C11.3784 8.64079 12.0931 8.05789 13.159 8.05789C15.3755 8.05789 15.7837 9.51316 15.7837 11.4026V15.2632Z" fill="white"/>
</svg>
