<svg width="25" height="25" viewBox="0 0 25 25" fill="none" xmlns="http://www.w3.org/2000/svg">
<rect y="13.6364" width="11.3636" height="11.3636" rx="2" fill="#BB8D3F"/>
<path d="M1.7041 17.3409C1.7041 16.2364 2.59953 15.3409 3.7041 15.3409H7.65865C8.76322 15.3409 9.65865 16.2364 9.65865 17.3409V21.2955C9.65865 22.4001 8.76322 23.2955 7.65865 23.2955H3.7041C2.59953 23.2955 1.7041 22.4001 1.7041 21.2955V17.3409Z" fill="#373737"/>
<rect x="13.6367" y="13.6364" width="11.3636" height="11.3636" rx="2" fill="#BB8D3F"/>
<rect x="15.3408" y="15.3409" width="7.95455" height="7.95455" rx="2" fill="#373737"/>
<rect width="11.3636" height="11.3636" rx="2" fill="#BB8D3F"/>
<rect x="1.7041" y="1.70459" width="7.95455" height="7.95455" rx="2" fill="#373737"/>
<rect x="13.6357" width="11.3636" height="11.3636" rx="2" fill="#BB8D3F"/>
<rect x="15.3398" y="1.70459" width="7.95455" height="7.95455" rx="2" fill="#373737"/>
</svg>
