<svg width="140" height="140" viewBox="0 0 140 140" fill="none" xmlns="http://www.w3.org/2000/svg">
<circle cx="70" cy="70" r="70" fill="#BB8D3F"/>
<g clip-path="url(#clip0_239_5)">
<path d="M111 79.5106C110.53 80.4138 109.783 80.9944 108.992 81.5751C106.514 83.36 104.079 85.1664 101.623 86.9728C100.107 88.0696 98.9531 87.9405 97.7142 86.5212C97.4793 86.2631 97.3511 86.2631 97.0735 86.4567L88.7432 92.5856C88.4655 92.7792 88.4228 92.9942 88.4655 93.3383C88.5431 93.8756 88.5113 94.4233 88.372 94.9478C88.2326 95.4724 87.9886 95.9629 87.6549 96.3895C87.3211 96.816 86.9046 97.1697 86.4307 97.4289C85.9568 97.6882 85.4355 97.8475 84.8984 97.8973C84.4926 97.9404 84.3003 98.0049 84.2363 98.478C84.0013 100.392 82.677 101.682 80.7119 101.983C80.2634 102.048 80.0925 102.155 80.007 102.671C79.6226 104.843 77.9565 106.198 75.7778 106.091C75.2011 106.069 75.0516 106.22 74.8807 106.779C74.0904 109.51 70.9292 110.542 68.5582 108.865C67.9388 108.435 67.5543 108.284 66.8067 108.779C64.8416 110.048 62.2571 108.994 61.4882 106.736C61.3386 106.327 61.1891 106.134 60.6978 106.091C59.0745 105.983 57.9852 105.08 57.4512 103.553C57.323 103.166 57.1735 103.016 56.7676 102.994C55.0162 102.822 53.8414 101.876 53.3715 100.177C53.2433 99.7683 53.0724 99.7038 52.7307 99.6608C52.1032 99.5947 51.5036 99.3653 50.991 98.9949C50.4784 98.6246 50.0705 98.1262 49.8074 97.5488C49.5444 96.9714 49.4353 96.335 49.491 95.7022C49.5466 95.0695 49.7651 94.4623 50.1248 93.9404L50.2316 93.8114C51.15 92.5211 51.15 92.5211 49.8898 91.5964C47.6043 89.919 45.3188 88.2416 43.0547 86.5427C42.6702 86.2631 42.4994 86.2416 42.179 86.6502C41.2178 87.876 39.8507 88.0266 38.5692 87.1018L30.1748 80.9514C29.6194 80.5643 29.3845 80.0052 29 79.5106V78.0482L31.2428 74.8655C32.0544 73.7472 32.1826 73.7042 33.4855 74.0268C34.0409 74.7795 33.9127 75.4891 33.336 76.1988C32.7593 76.9085 32.3321 77.6611 31.7768 78.3493C31.4991 78.7149 31.5632 78.9084 31.9263 79.1665C34.5037 81.0446 37.0882 82.937 39.6799 84.8438C40.0643 85.1449 40.2566 85.1019 40.5556 84.6933C43.8308 80.1629 47.1202 75.6397 50.4238 71.1236C50.6801 70.758 50.6801 70.586 50.2957 70.3279L42.5421 64.6291C42.0722 64.2635 41.8586 64.4141 41.5595 64.8227L37.1381 70.9516C36.54 71.7688 36.1555 71.8763 35.2157 71.5107C34.5749 70.629 34.5535 70.3064 35.1943 69.4462L39.8507 62.9947C40.876 61.5969 42.2644 61.3819 43.6741 62.4141L49.484 66.6506C50.0656 64.6373 50.8232 62.6798 51.7481 60.8012C54.7812 54.7368 58.7114 49.3821 64.0513 45.1456C64.4572 44.8445 64.4358 44.651 64.1581 44.2854C62.7697 42.3069 61.3813 40.35 60.057 38.3285C59.6225 37.6975 59.3478 36.9691 59.2569 36.2067C59.1659 35.4443 59.2615 34.6712 59.5353 33.9545C59.8091 33.2378 60.2527 32.5994 60.8277 32.0949C61.4026 31.5904 62.0913 31.235 62.8338 31.0598C63.6664 30.8472 64.5425 30.8846 65.3543 31.1673C65.7174 31.2964 65.9096 31.2318 66.1873 30.9738C68.5369 28.7588 71.4631 28.7803 73.8341 30.9953C73.9214 31.1043 74.0426 31.1806 74.1782 31.2118C74.3139 31.243 74.456 31.2273 74.5817 31.1673C76.7176 30.5652 78.7041 31.2319 79.9002 32.9307C81.0964 34.6296 81.0537 36.7371 79.8362 38.522C78.6187 40.307 77.2089 42.3499 75.8419 44.2424C75.5429 44.6725 75.5642 44.866 75.9914 45.1886C77.5079 46.2854 78.8322 47.6187 80.1352 48.952C80.6905 49.5541 80.8187 50.1347 80.3488 50.8229C79.8789 51.5111 79.0886 51.3605 78.4051 50.6509C77.0731 49.2242 75.6225 47.9148 74.069 46.7369C73.6847 46.4545 73.2205 46.3037 72.7447 46.3068C71.1641 46.3284 69.5835 46.3929 68.0242 46.2853C66.8922 46.2208 66.0378 46.5864 65.2047 47.2746C61.7872 50.0487 59.0531 53.382 56.6609 57.0378C54.5462 60.2421 52.8375 63.6399 51.7908 67.3817C51.6413 67.9624 51.684 68.328 52.2394 68.7151C54.9734 70.672 57.7075 72.629 60.3774 74.6935C61.5367 75.5898 62.9185 76.1478 64.3717 76.3063C64.7017 76.3763 65.0439 76.3597 65.3657 76.258C65.6874 76.1563 65.9777 75.973 66.2087 75.7257C67.8961 74.1128 69.9252 73.3817 72.2748 73.6827C74.1331 73.9193 75.7565 74.801 77.4866 75.4461C77.711 75.5457 77.9591 75.5784 78.2014 75.5403C78.4437 75.5022 78.6701 75.3949 78.8536 75.2311C81.787 73.0376 84.7418 70.8727 87.7179 68.7366C88.2732 68.328 88.3587 67.9624 88.1665 67.3387C86.949 63.0378 84.8771 59.1668 82.3139 55.5325C81.8013 54.8013 81.6517 54.1562 82.2285 53.425C83.3392 53.0594 83.6168 53.1454 84.3003 54.1347C86.8849 57.8335 89.0208 61.7689 90.3024 66.1345C90.4733 66.6721 90.6228 66.5861 90.9859 66.328C92.7374 65.0162 94.5103 63.7259 96.2832 62.4356C98.056 61.1453 99.1026 61.5754 100.149 63.0162L110.381 77.145C110.616 77.4676 110.786 77.8547 111 78.2203V79.5106ZM56.8104 92.5211C56.8317 92.6501 56.8744 92.7577 57.024 92.7792C57.216 93.1208 57.3735 93.481 57.4939 93.8544C57.5793 94.2415 57.7716 94.306 58.092 94.3275C59.7794 94.4566 60.9114 95.3598 61.4454 96.9511C61.5736 97.3382 61.7231 97.4242 62.0862 97.4672C63.56 97.5748 64.7562 98.2414 65.2475 99.6393C65.5892 100.628 66.1232 100.758 66.9562 100.628V100.736L67.063 100.693L66.9562 100.628C66.7874 100.432 66.6438 100.216 66.529 99.9833C66.3368 99.4672 66.4009 98.9511 66.8494 98.5855C67.298 98.2199 67.9174 98.1984 68.4514 98.607L73.9409 102.585C74.3175 102.999 74.7758 103.329 75.2865 103.553C75.6507 103.743 76.0714 103.79 76.4683 103.687C76.8651 103.584 77.2102 103.337 77.4376 102.993C77.665 102.65 77.7586 102.234 77.7007 101.826C77.6427 101.417 77.4372 101.045 77.1235 100.779C76.8031 100.499 76.3972 100.263 76.0341 100.005L75.4574 99.5747L71.4631 96.6285C71.2461 96.4926 71.08 96.2878 70.9911 96.0465C70.9022 95.8051 70.8954 95.5409 70.9719 95.2952C71.0284 95.0561 71.1574 94.8406 71.3412 94.6787C71.5249 94.5169 71.7542 94.4167 71.9971 94.392C72.4457 94.3275 72.8088 94.5856 73.1506 94.8221L78.2555 98.5425C78.5885 98.9229 78.9957 99.2304 79.4517 99.4457C79.8205 99.6264 80.2422 99.6657 80.6377 99.5561C81.0332 99.4466 81.3755 99.1957 81.6006 98.8504C81.8258 98.5052 81.9183 98.0892 81.8608 97.6803C81.8034 97.2713 81.6 96.8974 81.2886 96.6285C80.962 96.3603 80.6117 96.1228 80.242 95.9189L75.1584 92.1555C74.8593 91.919 74.5603 91.6824 74.4749 91.2953C74.4055 91.0621 74.4094 90.8131 74.4858 90.5822C74.5623 90.3512 74.7076 90.1497 74.9021 90.005C75.4147 89.6394 75.9487 89.6824 76.4613 90.048L82.6129 94.5211C82.8052 94.8651 83.1683 95.0157 83.4673 95.2307C83.8346 95.4843 84.2857 95.5835 84.7246 95.5072C85.1634 95.4309 85.5554 95.1851 85.8169 94.8221C86.0637 94.4694 86.168 94.0352 86.1085 93.6078C86.049 93.1805 85.8302 92.7919 85.4965 92.5211C85.1846 92.1968 84.8151 91.9342 84.4071 91.7469C80.4129 88.8007 76.3972 85.8761 72.4243 82.9084C71.9758 82.5858 71.6981 82.6718 71.3136 82.9729C69.7544 84.2417 68.1951 85.4675 66.6145 86.7147C65.6319 87.4889 64.5212 87.876 63.261 87.6395C61.5309 87.3384 60.3561 86.3277 59.8648 84.6288C59.3735 82.9299 59.8221 81.5105 61.0823 80.3063C61.6804 79.7256 62.2998 79.188 63.1115 78.4353C61.4668 78.4998 60.3988 77.7687 59.3735 76.93C59.0531 76.6719 58.8823 76.6934 58.6259 77.0375C56.2764 80.3206 53.9126 83.5965 51.5345 86.8653C51.1287 87.3814 50.7442 87.919 50.317 88.4352C49.8898 88.9513 50.1675 88.8222 50.4238 89.0158L53.2219 91.1233C53.3674 91.2395 53.5489 91.3004 53.7346 91.2953C54.9307 91.1663 55.8919 91.7039 56.7463 92.4566L56.8104 92.5211ZM107.262 77.1235L106.963 76.6719L98.3764 64.7581C98.0774 64.3711 97.8638 64.328 97.4793 64.6291C94.9446 66.5216 92.3814 68.3997 89.7898 70.2634C89.3626 70.586 89.3626 70.8226 89.6616 71.2312C92.5523 75.1881 95.4288 79.1522 98.291 83.1234C98.5686 83.532 98.8036 83.532 99.1881 83.2524L106.771 77.6826C106.982 77.5446 107.152 77.3513 107.262 77.1235ZM71.1855 76.0268C70.0219 76.0771 68.9118 76.5332 68.0456 77.3171L62.962 81.8761C62.0008 82.7363 61.8513 83.8116 62.5561 84.6288C63.261 85.4459 64.2436 85.4675 65.2475 84.6718L69.6048 81.231C71.3777 79.8332 72.2962 79.8116 74.1545 81.1665L85.2188 89.2738C85.8596 89.747 86.5431 90.5641 87.1839 90.5426C87.8247 90.5211 88.5082 89.6609 89.2131 89.2308C89.9179 88.8007 89.7257 88.5642 89.3626 88.0696C86.7567 84.4997 84.1508 80.9299 81.609 77.3171C81.1818 76.7149 80.8828 76.6289 80.3274 77.1235C79.174 78.1773 77.8924 78.3063 76.4827 77.6396C75.5215 77.188 74.4962 76.8655 73.5137 76.4784C72.7703 76.1903 71.982 76.0373 71.1855 76.0268ZM70.0107 43.8983H70.3311C71.2709 43.8983 72.3602 44.1779 73.0865 43.7908C73.8127 43.4037 74.2613 42.3284 74.8166 41.5327C75.8632 40.0489 76.9099 38.5435 77.9138 37.0382C78.2116 36.6321 78.3685 36.1386 78.3603 35.6338C78.3521 35.1291 78.1792 34.6411 77.8684 34.245C77.5575 33.8488 77.1259 33.5667 76.6401 33.4419C76.1542 33.3171 75.6411 33.3566 75.1797 33.5544C73.5564 34.1995 73.4923 34.1995 72.2535 32.8447C71.0146 31.4899 69.1349 31.4039 67.8106 32.7802L67.3194 33.3178C66.6572 34.049 66.0805 34.1565 65.1834 33.7264C64.2863 33.2963 62.9406 33.3178 62.193 34.178C61.4454 35.0382 61.4454 36.178 62.2144 37.2963C63.6241 39.3177 65.0339 41.3177 66.4222 43.3607C66.6999 43.7478 66.9562 43.9413 67.4475 43.9198C68.3019 43.8553 69.1563 43.8983 70.0107 43.8983ZM95.92 84.1126L95.621 83.6825C94.9375 82.7363 94.254 81.7686 93.5491 80.8224L87.5684 72.5645C87.4402 72.3924 87.3761 71.9623 86.949 72.2849C85.7528 73.1881 84.5353 74.0698 83.3391 74.93C83.0615 75.1236 83.0615 75.2526 83.2537 75.5107C86.0305 79.3242 88.793 83.1377 91.5413 86.9513C91.7335 87.2094 91.8617 87.2954 92.1607 87.0803C93.3141 86.1986 94.4889 85.3599 95.6424 84.4997C95.7705 84.4137 95.9414 84.3707 95.92 84.1126ZM56.9812 75.1236L56.7036 74.973L53.0297 72.2634C52.6879 72.0268 52.6239 72.2849 52.4957 72.4569L44.2508 83.8331C44.0159 84.1556 44.0586 84.3062 44.3576 84.5212C45.5111 85.3384 46.6218 86.1556 47.7111 86.9943C48.0956 87.2954 48.2665 87.2094 48.5228 86.8438C51.2141 83.1019 53.9482 79.36 56.6609 75.6182L56.9812 75.1236ZM69.2204 102.134L69.0281 102.284C69.5408 103.274 69.7544 104.263 69.4981 105.36C69.4126 105.725 68.8786 106.091 69.3699 106.499C69.6813 106.792 70.0433 107.025 70.4379 107.188C70.795 107.307 71.1811 107.304 71.5364 107.179C71.8917 107.055 72.1963 106.816 72.403 106.499C72.8302 105.876 72.8515 104.994 72.2748 104.499C71.3136 103.661 70.2456 102.908 69.2204 102.134ZM67.2339 104.327C67.2186 104.088 67.1416 103.857 67.0105 103.657C66.8793 103.458 66.6987 103.296 66.4863 103.188C66.2639 103.061 66.007 103.009 65.7534 103.04C65.4997 103.071 65.2625 103.183 65.0766 103.36C64.5529 103.812 64.1182 104.359 63.795 104.972C63.681 105.187 63.6343 105.431 63.661 105.673C63.6877 105.915 63.7866 106.143 63.9445 106.327C64.0835 106.526 64.2761 106.68 64.4995 106.771C64.7229 106.863 64.9677 106.888 65.2047 106.843C65.931 106.714 67.2339 105.08 67.2339 104.327ZM59.2027 98.0694C59.1386 97.5318 58.925 97.1017 58.4123 96.8651C58.1812 96.7562 57.9227 96.7205 57.671 96.7627C57.4192 96.805 57.1862 96.9232 57.0026 97.1017C56.5099 97.5586 56.0982 98.0968 55.7851 98.693C55.6683 98.9055 55.618 99.1486 55.6409 99.3904C55.6637 99.6322 55.7587 99.8614 55.9133 100.048C56.0557 100.242 56.2488 100.394 56.4711 100.485C56.6935 100.576 56.9366 100.603 57.1735 100.564C57.8997 100.435 59.224 98.8006 59.2027 98.0694ZM63.2183 101.188C63.2051 100.948 63.1289 100.716 62.9976 100.516C62.8662 100.316 62.6844 100.154 62.4707 100.048C62.236 99.9144 61.964 99.8631 61.6973 99.902C61.4306 99.941 61.1843 100.068 60.9969 100.263C60.559 100.726 60.1656 101.23 59.8221 101.768C59.6838 101.986 59.6213 102.243 59.6445 102.5C59.6677 102.757 59.7753 102.999 59.9502 103.188C60.1001 103.396 60.3083 103.554 60.548 103.642C60.7878 103.73 61.0482 103.744 61.2959 103.682C61.9581 103.532 63.2396 101.876 63.2183 101.188ZM55.2298 94.8652C55.2196 94.6468 55.1506 94.4354 55.0302 94.2536C54.9098 94.0717 54.7425 93.9263 54.5462 93.8329C54.3381 93.7137 54.0977 93.6641 53.8598 93.6912C53.6218 93.7182 53.3985 93.8205 53.2219 93.9834C52.743 94.4094 52.345 94.9195 52.0471 95.4888C51.7908 95.9404 51.8763 96.3705 52.1539 96.7791C52.2969 96.9763 52.496 97.1251 52.7249 97.2057C52.9538 97.2864 53.2016 97.2951 53.4355 97.2307C54.0336 97.1017 55.2298 95.5533 55.2298 94.8652Z" fill="#28282B"/>
<path d="M69.9759 69.9991C69.3623 69.9782 68.9213 69.4783 68.9405 68.6658C68.9597 67.8534 68.7871 67.8118 68.2502 67.6451C67.5564 67.4135 66.9334 66.9815 66.4479 66.3952C65.8919 65.7911 65.8535 65.1245 66.3329 64.6037C66.8122 64.0829 67.3491 64.1454 67.9051 64.7079C68.2343 65.0516 68.6263 65.3164 69.0557 65.4851C69.4851 65.6538 69.9423 65.7225 70.3977 65.6869C70.7348 65.6648 71.0599 65.5423 71.3372 65.3328C71.9891 64.812 72.0083 64.1454 71.3564 63.6038C70.7045 63.0622 70.3593 63.083 69.8608 62.8747L68.3269 62.2081C67.1957 61.6873 66.4863 60.7915 66.4863 59.3958C66.472 58.7672 66.6303 58.1481 66.941 57.6176C67.2517 57.0871 67.7009 56.6691 68.2311 56.4169C68.7296 56.167 68.9597 55.8961 68.9405 55.2712C68.9213 54.6463 69.4007 53.9796 70.0142 54.0005C70.6278 54.0213 71.0879 54.5213 71.0688 55.3129C71.0496 56.1045 71.2797 56.167 71.7974 56.3128C72.324 56.4811 72.8133 56.7647 73.2354 57.146C73.7531 57.6043 73.8489 58.2709 73.4847 58.8126C73.403 58.9345 73.3 59.0378 73.1815 59.1164C73.063 59.195 72.9314 59.2474 72.7942 59.2706C72.6571 59.2939 72.517 59.2874 72.3822 59.2517C72.2473 59.216 72.1202 59.1517 72.0083 59.0625C71.3755 58.6251 70.7236 58.2709 69.9567 58.2918C69.6423 58.2898 69.3348 58.3914 69.0747 58.5834C68.4995 59.0209 68.5187 59.7291 69.1706 60.0208C69.8225 60.3124 70.8579 60.7499 71.7015 61.1248C72.5451 61.4998 73.3888 62.2081 73.7914 63.2705C74.4242 65.0203 73.5805 66.9577 71.759 67.7076C71.2797 67.9159 71.0496 68.1451 71.0688 68.7492C71.0826 68.9117 71.0642 69.0756 71.015 69.2298C70.9657 69.384 70.8867 69.525 70.7832 69.6434C70.6797 69.7617 70.5542 69.8547 70.4149 69.916C70.2757 69.9774 70.126 70.0057 69.9759 69.9991Z" fill="#28282B"/>
<path d="M56.8105 92.5211C57.0882 92.4351 57.0241 92.6286 57.0241 92.7792C57.0241 92.9297 56.8319 92.6501 56.8105 92.5211Z" fill="#28282B"/>
<path d="M66.9561 100.629L67.0629 100.693L66.9561 100.736V100.629Z" fill="#FEFEFE"/>
</g>
<defs>
<clipPath id="clip0_239_5">
<rect width="82" height="81" fill="white" transform="translate(29 29)"/>
</clipPath>
</defs>
</svg>
