<svg width="140" height="140" viewBox="0 0 140 140" fill="none" xmlns="http://www.w3.org/2000/svg">
<circle cx="70" cy="70" r="70" fill="#BB8D3F"/>
<path d="M66.667 88.8333C66.667 88.6801 66.6369 88.5284 66.5783 88.3868C66.5197 88.2452 66.4338 88.1165 66.3254 88.0082C66.2171 87.8998 66.0884 87.8139 65.9469 87.7553C65.8053 87.6967 65.6535 87.6666 65.5003 87.6667H39.8338V85.3333H70.1669C70.4763 85.3333 70.7731 85.2104 70.9919 84.9916C71.2107 84.7728 71.3336 84.4761 71.3336 84.1667C71.3336 83.8572 71.2107 83.5605 70.9919 83.3417C70.7731 83.1229 70.4763 83 70.1669 83H60.8337V63.1667C60.8337 63.0134 60.8036 62.8617 60.7449 62.7202C60.6863 62.5786 60.6004 62.45 60.4921 62.3416C60.3837 62.2333 60.2551 62.1473 60.1135 62.0887C59.972 62.0301 59.8202 62 59.667 62H48.0004C47.8472 62 47.6955 62.0301 47.5539 62.0887C47.4124 62.1473 47.2837 62.2333 47.1754 62.3416C47.0671 62.45 46.9811 62.5786 46.9225 62.7202C46.8639 62.8617 46.8337 63.0134 46.8338 63.1667V83H43.3338V57.9995L63.167 42.4811L83.0002 57.9995V62.4318C83.0002 62.7412 83.1231 63.0379 83.3419 63.2567C83.5607 63.4755 83.8574 63.5984 84.1668 63.5984C84.4762 63.5984 84.773 63.4755 84.9918 63.2567C85.2106 63.0379 85.3335 62.7412 85.3335 62.4318V59.8253L87.1701 61.2623C87.4136 61.4528 87.7228 61.5389 88.0298 61.5016C88.3367 61.4643 88.6164 61.3067 88.8072 61.0635L92.0851 56.8867C92.1798 56.7661 92.2498 56.628 92.291 56.4803C92.3323 56.3325 92.344 56.1781 92.3254 56.0259C92.3069 55.8736 92.2585 55.7265 92.1831 55.593C92.1076 55.4595 92.0065 55.3422 91.8857 55.2478L85.3335 50.1199V35.1667C85.3335 35.0134 85.3034 34.8617 85.2448 34.7202C85.1861 34.5786 85.1002 34.45 84.9919 34.3416C84.8835 34.2333 84.7549 34.1473 84.6133 34.0887C84.4718 34.0301 84.32 34 84.1668 34H74.8336C74.6803 34 74.5286 34.0301 74.3871 34.0887C74.2455 34.1473 74.1169 34.2333 74.0085 34.3416C73.9002 34.45 73.8142 34.5786 73.7556 34.7202C73.697 34.8617 73.6669 35.0134 73.6669 35.1667V40.9895L65.972 34.9673C65.1631 34.3601 64.179 34.0319 63.1677 34.0318C62.1563 34.0317 61.1721 34.3597 60.3631 34.9667L34.4483 55.2478C34.3274 55.3422 34.2264 55.4595 34.1509 55.593C34.0754 55.7265 34.0271 55.8736 34.0085 56.0259C33.99 56.1781 34.0017 56.3325 34.043 56.4803C34.0842 56.628 34.1542 56.7661 34.2489 56.8867L37.5267 61.0635C37.7179 61.3064 37.9974 61.4637 38.3043 61.5009C38.6111 61.5382 38.9202 61.4524 39.1639 61.2623L41.0005 59.8253V83H38.6672C38.5139 82.9999 38.3622 83.03 38.2206 83.0886C38.079 83.1472 37.9504 83.2332 37.842 83.3415C37.7337 83.4499 37.6477 83.5785 37.5891 83.7201C37.5305 83.8617 37.5004 84.0134 37.5005 84.1667V88.8333C37.5004 88.9866 37.5305 89.1383 37.5891 89.2799C37.6477 89.4215 37.7337 89.5501 37.842 89.6585C37.9504 89.7668 38.079 89.8528 38.2206 89.9114C38.3622 89.97 38.5139 90.0001 38.6672 90H65.5003C65.6535 90.0001 65.8053 89.97 65.9469 89.9114C66.0884 89.8528 66.2171 89.7668 66.3254 89.6585C66.4338 89.5501 66.5197 89.4215 66.5783 89.2799C66.6369 89.1383 66.667 88.9866 66.667 88.8333ZM49.1671 64.3333H58.5004V83H49.1671V64.3333ZM76.0002 36.3333H83.0002V48.2939L76.0002 42.8156V36.3333ZM38.6432 58.7068L36.8067 56.3655L61.8021 36.8039C62.1959 36.5081 62.6751 36.3482 63.1677 36.3483C63.6602 36.3484 64.1393 36.5085 64.533 36.8044L89.5273 56.3655L87.6907 58.7068L63.8859 40.0811C63.6807 39.9206 63.4276 39.8333 63.167 39.8333C62.9064 39.8333 62.6533 39.9206 62.4481 40.0811L38.6432 58.7068ZM91.1668 64.3333C87.7644 64.3372 84.5024 65.6905 82.0965 68.0964C79.6907 70.5023 78.3374 73.7642 78.3335 77.1667C78.3348 78.4013 78.5163 79.6292 78.8724 80.8113L64.6755 95.0085C64.5671 95.1168 64.4811 95.2454 64.4225 95.3869C64.3638 95.5284 64.3336 95.6801 64.3336 95.8333V102.833C64.3336 102.987 64.3637 103.138 64.4223 103.28C64.4809 103.421 64.5668 103.55 64.6752 103.658C64.7835 103.767 64.9121 103.853 65.0537 103.911C65.1953 103.97 65.3471 104 65.5003 104H72.5002C72.6535 104 72.8052 103.97 72.9468 103.911C73.0884 103.853 73.217 103.767 73.3254 103.658C73.4337 103.55 73.5197 103.421 73.5783 103.28C73.6369 103.138 73.667 102.987 73.6669 102.833V99.3333H77.1669C77.3201 99.3334 77.4719 99.3033 77.6134 99.2447C77.755 99.1861 77.8837 99.1002 77.992 98.9918C78.1004 98.8835 78.1863 98.7548 78.2449 98.6132C78.3035 98.4716 78.3336 98.3199 78.3335 98.1667V94.6667H81.8335C81.9867 94.6667 82.1384 94.6365 82.2799 94.5778C82.4215 94.5192 82.5501 94.4332 82.6583 94.3248L87.5221 89.4611C88.7043 89.8172 89.9321 89.9988 91.1668 90C94.5704 90 97.8345 88.6479 100.241 86.2412C102.648 83.8345 104 80.5703 104 77.1667C104 73.7631 102.648 70.4988 100.241 68.0921C97.8345 65.6854 94.5704 64.3333 91.1668 64.3333ZM91.1668 87.6667C89.9509 87.664 88.7448 87.4489 87.603 87.0309C87.3944 86.9552 87.1686 86.9406 86.952 86.9888C86.7355 87.0371 86.5372 87.1461 86.3805 87.3032L81.3504 92.3333H77.1669C77.0136 92.3332 76.8619 92.3634 76.7203 92.422C76.5787 92.4806 76.4501 92.5665 76.3417 92.6748C76.2334 92.7832 76.1474 92.9118 76.0889 93.0534C76.0303 93.195 76.0001 93.3468 76.0002 93.5V97H72.5002C72.347 96.9999 72.1953 97.03 72.0537 97.0886C71.9121 97.1472 71.7835 97.2332 71.6751 97.3415C71.5667 97.4499 71.4808 97.5785 71.4222 97.7201C71.3636 97.8617 71.3335 98.0134 71.3336 98.1667V101.667H66.667V96.3164L81.0303 81.953C81.1871 81.7961 81.296 81.5978 81.3442 81.3813C81.3924 81.1648 81.378 80.9391 81.3026 80.7305C80.5466 78.6322 80.4789 76.3475 81.1093 74.2082C81.7397 72.0688 83.0355 70.1859 84.8084 68.8328C86.5814 67.4797 88.7394 66.7268 90.9693 66.6833C93.1992 66.6398 95.385 67.3079 97.2094 68.5908C99.0339 69.8737 100.402 71.7045 101.115 73.8177C101.829 75.9309 101.85 78.2164 101.177 80.3426C100.503 82.4688 99.1698 84.3251 97.3698 85.6421C95.5699 86.959 93.3971 87.6682 91.1668 87.6667ZM93.5001 70.1667C92.5771 70.1667 91.6749 70.4404 90.9074 70.9531C90.14 71.4659 89.5419 72.1948 89.1887 73.0475C88.8355 73.9002 88.7431 74.8385 88.9231 75.7438C89.1032 76.649 89.5476 77.4805 90.2003 78.1332C90.8529 78.7858 91.6844 79.2303 92.5897 79.4103C93.4949 79.5904 94.4332 79.498 95.2859 79.1448C96.1386 78.7916 96.8675 78.1934 97.3802 77.426C97.893 76.6586 98.1667 75.7563 98.1667 74.8333C98.1655 73.596 97.6734 72.4098 96.7985 71.5349C95.9236 70.66 94.7374 70.1679 93.5001 70.1667ZM93.5001 77.1667C93.0386 77.1667 92.5875 77.0298 92.2038 76.7734C91.82 76.517 91.521 76.1526 91.3444 75.7263C91.1678 75.2999 91.1216 74.8307 91.2116 74.3781C91.3016 73.9255 91.5239 73.5097 91.8502 73.1834C92.1765 72.8571 92.5923 72.6349 93.0449 72.5448C93.4975 72.4548 93.9666 72.501 94.393 72.6776C94.8194 72.8542 95.1838 73.1533 95.4402 73.537C95.6966 73.9207 95.8334 74.3718 95.8334 74.8333C95.8326 75.4519 95.5865 76.0449 95.1491 76.4824C94.7117 76.9198 94.1187 77.1659 93.5001 77.1667ZM77.1669 66.6667V64.3333H66.667V72.5H74.8336C75.143 72.5 75.4397 72.6229 75.6585 72.8417C75.8773 73.0605 76.0002 73.3572 76.0002 73.6667C76.0002 73.9761 75.8773 74.2728 75.6585 74.4916C75.4397 74.7104 75.143 74.8333 74.8336 74.8333H65.5003C65.3471 74.8334 65.1953 74.8033 65.0537 74.7447C64.9121 74.6861 64.7835 74.6002 64.6752 74.4918C64.5668 74.3835 64.4809 74.2548 64.4223 74.1132C64.3637 73.9716 64.3336 73.8199 64.3336 73.6667V63.1667C64.3336 63.0134 64.3638 62.8617 64.4224 62.7202C64.481 62.5786 64.5669 62.45 64.6753 62.3416C64.7836 62.2333 64.9122 62.1473 65.0538 62.0887C65.1954 62.0301 65.3471 62 65.5003 62H78.3335C78.4868 62 78.6385 62.0301 78.78 62.0887C78.9216 62.1473 79.0502 62.2333 79.1586 62.3416C79.2669 62.45 79.3529 62.5786 79.4115 62.7202C79.4701 62.8617 79.5002 63.0134 79.5002 63.1667V66.6667C79.5002 66.9761 79.3773 67.2728 79.1585 67.4916C78.9397 67.7104 78.643 67.8333 78.3335 67.8333C78.0241 67.8333 77.7274 67.7104 77.5086 67.4916C77.2898 67.2728 77.1669 66.9761 77.1669 66.6667Z" fill="#28282B"/>
</svg>
