<svg width="16" height="16" viewBox="0 0 16 16" fill="none" xmlns="http://www.w3.org/2000/svg">
<path d="M7.99999 0C3.58218 0 0 3.58164 0 8C0 12.4184 3.58183 16 7.99999 16C12.4185 16 16 12.4184 16 8C16 3.58164 12.4185 0 7.99999 0ZM7.99999 2.39209C9.46182 2.39209 10.6464 3.57707 10.6464 5.03826C10.6464 6.4998 9.46182 7.68443 7.99999 7.68443C6.53887 7.68443 5.35429 6.4998 5.35429 5.03826C5.35429 3.57707 6.53887 2.39209 7.99999 2.39209ZM7.99823 13.9084C6.54027 13.9084 5.20495 13.3774 4.17499 12.4985C3.92409 12.2845 3.77931 11.9707 3.77931 11.6414C3.77931 10.1595 4.97865 8.97342 6.46085 8.97342H9.53983C11.0224 8.97342 12.2171 10.1595 12.2171 11.6414C12.2171 11.971 12.0731 12.2841 11.8218 12.4981C10.7922 13.3774 9.45654 13.9084 7.99823 13.9084Z" fill="#28282B"/>
</svg>
