<svg width="18" height="17" viewBox="0 0 18 17" fill="none" xmlns="http://www.w3.org/2000/svg">
<path d="M17.9401 6.34963C17.7946 5.90731 17.4134 5.58575 16.9525 5.51863L12.284 4.84026L10.1979 0.625077C9.78479 -0.208359 8.4196 -0.208359 8.00654 0.625077L5.92042 4.84026L1.26293 5.51863C0.803368 5.58575 0.420867 5.90844 0.27668 6.35094C0.132493 6.79213 0.252308 7.27738 0.58587 7.60231L3.96386 10.8948L3.16699 15.5401C3.0888 15.9984 3.27705 16.4628 3.65336 16.7365C3.86599 16.8905 4.1178 16.9687 4.37074 16.9687C4.5663 16.9687 4.76186 16.9222 4.94261 16.828L9.10285 14.6343L13.2764 16.828C13.687 17.0469 14.1856 17.0101 14.5634 16.7352C14.9386 16.4615 15.1268 15.9984 15.0486 15.5399L14.2531 10.8946L17.6311 7.60212C17.9645 7.2785 18.0831 6.79212 17.9401 6.34963Z" fill="#BB8D3F"/>
</svg>
