<svg width="21" height="20" viewBox="0 0 21 20" fill="none" xmlns="http://www.w3.org/2000/svg">
<path opacity="0.5" d="M10.2305 0C4.69511 0 0.19165 4.48602 0.19165 10C0.19165 15.5136 4.69511 20 10.2305 20C15.7655 20 20.2694 15.5136 20.2694 10C20.2694 4.48602 15.7663 0 10.2305 0ZM14.7089 7.71127C14.7133 7.81036 14.7158 7.91026 14.7158 8.01015C14.7158 11.0517 12.3923 14.5577 8.14114 14.5577C6.83624 14.5577 5.62151 14.1779 4.59927 13.5245C4.78002 13.5459 4.96401 13.5568 5.15042 13.5568C6.23332 13.5568 7.22929 13.1886 8.02023 12.5715C7.00931 12.553 6.15569 11.8875 5.86171 10.9728C6.00243 10.9994 6.1476 11.0143 6.296 11.0143C6.50668 11.0143 6.71129 10.9869 6.90498 10.9341C5.84796 10.723 5.05176 9.79296 5.05176 8.67719C5.05176 8.66753 5.05176 8.65746 5.05216 8.64819C5.36353 8.82019 5.71978 8.92411 6.09827 8.93579C5.47877 8.52373 5.07076 7.81882 5.07076 7.02046C5.07076 6.59832 5.18439 6.20277 5.38334 5.86281C6.52245 7.2557 8.22565 8.17167 10.1456 8.26835C10.106 8.09957 10.0862 7.92435 10.0862 7.74349C10.0862 6.47265 11.1205 5.44188 12.3963 5.44188C13.0611 5.44188 13.6608 5.72142 14.0829 6.16853C14.6098 6.06542 15.1032 5.87449 15.5508 5.60984C15.3769 6.14759 15.0118 6.59832 14.5334 6.88351C15.0013 6.82792 15.4477 6.70466 15.8605 6.52139C15.5524 6.9822 15.1606 7.38782 14.7089 7.71127Z" fill="white"/>
</svg>
