<svg width="140" height="140" viewBox="0 0 140 140" fill="none" xmlns="http://www.w3.org/2000/svg">
<circle cx="70" cy="70" r="70" fill="#BB8D3F"/>
<path d="M45.2109 51.6704V46.7268C45.2109 38.0408 52.2518 31 60.9377 31H63.618C72.3039 31 79.3462 38.0408 79.3462 46.7268V51.6704" stroke="#28282B" stroke-width="2" stroke-miterlimit="10" stroke-linecap="round" stroke-linejoin="round"/>
<path d="M80.8559 101H46.2334" stroke="#28282B" stroke-width="2" stroke-miterlimit="10" stroke-linecap="round" stroke-linejoin="round"/>
<path d="M41.3042 101H39.7535C38.7845 101 38 100.215 38 99.2465V84.3915C38 79.7056 41.3676 75.6972 45.9831 74.8915L51.293 73.9634" stroke="#28282B" stroke-width="2" stroke-miterlimit="10" stroke-linecap="round" stroke-linejoin="round"/>
<path d="M73.2637 73.9634L78.5735 74.8915C79.0735 74.9789 79.5594 75.1042 80.0271 75.2634" stroke="#28282B" stroke-width="2" stroke-miterlimit="10" stroke-linecap="round" stroke-linejoin="round"/>
<path d="M68.2646 66.7802V71.6168C68.2646 71.8309 68.3027 72.0365 68.3745 72.228" stroke="#28282B" stroke-width="2" stroke-miterlimit="10" stroke-linecap="round" stroke-linejoin="round"/>
<path d="M56.2935 66.8057V71.6169C56.2935 71.831 56.254 72.0381 56.1836 72.2296" stroke="#28282B" stroke-width="2" stroke-miterlimit="10" stroke-linecap="round" stroke-linejoin="round"/>
<path d="M74.8193 47.7605H75.4362C77.5954 47.7605 79.3461 49.5098 79.3461 51.6704C79.3461 52.7492 78.9081 53.7267 78.201 54.4337C77.4926 55.1408 76.5151 55.5788 75.4362 55.5788H74.8193" stroke="#28282B" stroke-width="2" stroke-miterlimit="10" stroke-linecap="round" stroke-linejoin="round"/>
<path d="M49.7377 55.5788H49.1208C46.9602 55.5788 45.2109 53.8295 45.2109 51.6704C45.2109 50.5901 45.6476 49.6126 46.356 48.9056C47.0631 48.1971 48.0405 47.7605 49.1208 47.7605H49.7377" stroke="#28282B" stroke-width="2" stroke-miterlimit="10" stroke-linecap="round" stroke-linejoin="round"/>
<path d="M49.5264 100.999L49.5319 89.6711" stroke="#28282B" stroke-width="2" stroke-miterlimit="10" stroke-linecap="round" stroke-linejoin="round"/>
<path d="M50.2693 45.401C53.9736 43.913 55.8419 43.0913 56.8031 41.4773C57.106 40.9687 57.8243 40.9095 58.19 41.3749C61.0715 45.0448 66.5886 45.5275 74.0256 45.98C74.4715 46.0072 74.82 46.3768 74.82 46.8235V55.6256C74.82 62.5413 69.288 68.2731 62.3725 68.3234C55.4029 68.3741 49.7383 62.7407 49.7383 55.7828V46.1854C49.7383 45.8403 49.949 45.5297 50.2693 45.401Z" stroke="#28282B" stroke-width="2" stroke-miterlimit="10" stroke-linecap="round" stroke-linejoin="round"/>
<path d="M75.03 89.6716L75.0244 101" stroke="#28282B" stroke-width="2" stroke-miterlimit="10" stroke-linecap="round" stroke-linejoin="round"/>
<path d="M68.1094 51.0359V52.3035" stroke="#28282B" stroke-width="2" stroke-miterlimit="10" stroke-linecap="round" stroke-linejoin="round"/>
<path d="M56.4473 51.0359V52.3035" stroke="#28282B" stroke-width="2" stroke-miterlimit="10" stroke-linecap="round" stroke-linejoin="round"/>
<path d="M59.8398 61.4498C61.2939 62.5072 63.2628 62.5072 64.7169 61.4498" stroke="#28282B" stroke-width="2" stroke-miterlimit="10" stroke-linecap="round" stroke-linejoin="round"/>
<path d="M61.9258 57.6184H62.63" stroke="#28282B" stroke-width="2" stroke-miterlimit="10" stroke-linecap="round" stroke-linejoin="round"/>
<path d="M60.3969 84.5647L57.9307 101" stroke="#28282B" stroke-width="2" stroke-miterlimit="10" stroke-linecap="round" stroke-linejoin="round"/>
<path d="M66.6254 101L64.1592 84.5647" stroke="#28282B" stroke-width="2" stroke-miterlimit="10" stroke-linecap="round" stroke-linejoin="round"/>
<path d="M59.4326 81.6663L59.6777 83.5156C59.7706 84.2156 60.3678 84.7381 61.0735 84.7381H63.4833C64.189 84.7381 64.7861 84.2156 64.8791 83.5156L65.1242 81.6663" stroke="#28282B" stroke-width="2" stroke-miterlimit="10" stroke-linecap="round" stroke-linejoin="round"/>
<path d="M73.0823 73.039L70.9209 70.8776C70.5909 70.5476 70.0558 70.5476 69.7258 70.8776L62.5258 78.0776C62.1958 78.4076 62.1958 78.9427 62.5258 79.2727L64.6872 81.4341C65.0172 81.7641 65.5523 81.7641 65.8823 81.4341L73.0823 74.2341C73.4123 73.9041 73.4123 73.369 73.0823 73.039Z" stroke="#28282B" stroke-width="2" stroke-miterlimit="10" stroke-linecap="round" stroke-linejoin="round"/>
<path d="M51.4741 73.039L53.6355 70.8776C53.9655 70.5476 54.5005 70.5476 54.8305 70.8776L62.0305 78.0776C62.3605 78.4076 62.3605 78.9427 62.0305 79.2727L59.8691 81.4341C59.5391 81.7641 59.0041 81.7641 58.6741 81.4341L51.4741 74.2341C51.1441 73.9041 51.1441 73.369 51.4741 73.039Z" stroke="#28282B" stroke-width="2" stroke-miterlimit="10" stroke-linecap="round" stroke-linejoin="round"/>
<path d="M64.7579 88.5553L59.3252 91.7061" stroke="#28282B" stroke-width="2" stroke-miterlimit="10" stroke-linecap="round" stroke-linejoin="round"/>
<path d="M65.5739 93.9905L58.3545 98.1778" stroke="#28282B" stroke-width="2" stroke-miterlimit="10" stroke-linecap="round" stroke-linejoin="round"/>
<path d="M81.9912 96.3523V78.3467" stroke="#28282B" stroke-width="2" stroke-miterlimit="10" stroke-linecap="round" stroke-linejoin="round"/>
<path d="M106.021 96.3519V78.3477" stroke="#28282B" stroke-width="2" stroke-miterlimit="10" stroke-linecap="round" stroke-linejoin="round"/>
<path d="M89.7305 96.3524V85.865C89.7305 85.2425 90.2347 84.7383 90.8572 84.7383H97.153C97.7755 84.7383 98.2798 85.2425 98.2798 85.865V96.3524" stroke="#28282B" stroke-width="2" stroke-miterlimit="10" stroke-linecap="round" stroke-linejoin="round"/>
<path d="M107.155 101H80.8568C80.39 101 80.0117 100.622 80.0117 100.155V97.1974C80.0117 96.7306 80.39 96.3523 80.8568 96.3523H107.155C107.622 96.3523 108 96.7306 108 97.1974V100.155C108 100.622 107.622 101 107.155 101Z" stroke="#28282B" stroke-width="2" stroke-miterlimit="10" stroke-linecap="round" stroke-linejoin="round"/>
<path d="M105.843 73.738L107.734 74.9126C107.9 75.0154 108 75.1971 108 75.3915V78.5633C108 79.0042 107.515 79.2746 107.14 79.0422L94.3033 71.0675C94.1216 70.9549 93.8906 70.9549 93.7089 71.0675L80.8723 79.0422C80.4976 79.2746 80.0117 79.0042 80.0117 78.5633V75.3915C80.0117 75.1971 80.1131 75.0154 80.2779 74.9126L93.7089 66.5703C93.8906 66.4577 94.1216 66.4577 94.3033 66.5703L101.654 71.1351" stroke="#28282B" stroke-width="2" stroke-miterlimit="10" stroke-linecap="round" stroke-linejoin="round"/>
<path d="M94.0058 80.9447C95.3671 80.9447 96.4706 79.8412 96.4706 78.4799C96.4706 77.1187 95.3671 76.0151 94.0058 76.0151C92.6445 76.0151 91.541 77.1187 91.541 78.4799C91.541 79.8412 92.6445 80.9447 94.0058 80.9447Z" stroke="#28282B" stroke-width="2" stroke-miterlimit="10" stroke-linecap="round" stroke-linejoin="round"/>
</svg>
