<svg width="21" height="20" viewBox="0 0 21 20" fill="none" xmlns="http://www.w3.org/2000/svg">
<g opacity="0.5">
<path d="M9.51904 11.8734L12.7846 9.99994L9.51904 8.12646V11.8734Z" fill="white"/>
<path d="M10.7693 0C5.22587 0 0.730469 4.478 0.730469 10C0.730469 15.522 5.22587 20 10.7693 20C16.3128 20 20.8082 15.522 20.8082 10C20.8082 4.478 16.3128 0 10.7693 0ZM17.0421 10.0102C17.0421 10.0102 17.0421 12.0383 16.7838 13.0162C16.6391 13.5515 16.2154 13.9735 15.678 14.1176C14.6963 14.375 10.7693 14.375 10.7693 14.375C10.7693 14.375 6.85265 14.375 5.86065 14.1074C5.32329 13.9633 4.89959 13.5411 4.75484 13.0058C4.49642 12.0383 4.49642 10 4.49642 10C4.49642 10 4.49642 7.97211 4.75484 6.99417C4.89944 6.45889 5.33355 6.02646 5.86065 5.88242C6.84238 5.625 10.7693 5.625 10.7693 5.625C10.7693 5.625 14.6963 5.625 15.678 5.89264C16.2154 6.03668 16.6391 6.45889 16.7838 6.99417C17.0525 7.97211 17.0421 10.0102 17.0421 10.0102Z" fill="white"/>
</g>
</svg>
